<svg xmlns:dc="http://purl.org/dc/elements/1.1/" xmlns:cc="http://creativecommons.org/ns#" xmlns:rdf="http://www.w3.org/1999/02/22-rdf-syntax-ns#" xmlns:svg="http://www.w3.org/2000/svg" xmlns="http://www.w3.org/2000/svg" xmlns:sodipodi="http://sodipodi.sourceforge.net/DTD/sodipodi-0.dtd" xmlns:inkscape="http://www.inkscape.org/namespaces/inkscape" viewBox="0 0 26.458333 33.0729175" version="1.1" x="0px" y="0px"><g transform="translate(131.02975,-196.70833)"><path style="color:#000000;font-style:normal;font-variant:normal;font-weight:normal;font-stretch:normal;font-size:medium;line-height:normal;font-family:sans-serif;font-variant-ligatures:normal;font-variant-position:normal;font-variant-caps:normal;font-variant-numeric:normal;font-variant-alternates:normal;font-feature-settings:normal;text-indent:0;text-align:start;text-decoration:none;text-decoration-line:none;text-decoration-style:solid;text-decoration-color:#000000;letter-spacing:normal;word-spacing:normal;text-transform:none;writing-mode:lr-tb;direction:ltr;text-orientation:mixed;dominant-baseline:auto;baseline-shift:baseline;text-anchor:start;white-space:normal;shape-padding:0;clip-rule:nonzero;display:inline;overflow:visible;visibility:visible;opacity:1;isolation:auto;mix-blend-mode:normal;color-interpolation:sRGB;color-interpolation-filters:linearRGB;solid-color:#000000;solid-opacity:1;vector-effect:none;fill:#000000;fill-opacity:1;fill-rule:nonzero;stroke:none;stroke-width:1.44031811;stroke-linecap:round;stroke-linejoin:round;stroke-miterlimit:4;stroke-dasharray:none;stroke-dashoffset:86.95724487;stroke-opacity:1;color-rendering:auto;image-rendering:auto;shape-rendering:auto;text-rendering:auto;enable-background:accumulate" d="m -117.82029,200.20721 a 0.2701326,0.2701326 0 0 0 -0.20565,0.10709 l -1.03058,0.96237 a 0.27015882,0.27015882 0 1 0 0.36862,0.395 l 0.60996,-0.56961 v 6.88929 a 0.27013268,0.27013268 0 1 0 0.54013,0 v -6.88929 l 0.60997,0.56961 a 0.27015882,0.27015882 0 1 0 0.36861,-0.395 l -1.03135,-0.96299 a 0.2701326,0.2701326 0 0 0 -0.19945,-0.10554 0.2701326,0.2701326 0 0 0 -0.007,-3.9e-4 0.2701326,0.2701326 0 0 0 -0.006,-3.8e-4 0.2701326,0.2701326 0 0 0 -0.004,2.3e-4 0.2701326,0.2701326 0 0 0 -0.0155,-2.3e-4 z m 6.58469,0.78163 a 0.2701326,0.2701326 0 0 0 -0.1521,0.49589 l 0.55409,0.37793 c -3.03253,0.39345 -5.37935,2.99015 -5.37935,6.12884 a 0.27021277,0.27021277 0 1 0 0.54013,0 c 0,-2.95546 2.26549,-5.37492 5.15701,-5.61945 l -0.48503,0.82943 a 0.2701326,0.2701326 0 1 0 0.4664,0.27239 l 0.73569,-1.25649 a 0.2701326,0.2701326 0 0 0 0.003,-0.006 0.27021242,0.27021242 0 0 0 0.006,-0.008 0.2701326,0.2701326 0 0 0 -0.12805,-0.36784 l -1.16592,-0.79397 a 0.2701326,0.2701326 0 0 0 -0.1521,-0.0466 z m -13.24544,3.9e-4 a 0.2701326,0.2701326 0 0 0 -0.14434,0.0466 l -1.16608,0.79404 a 0.2701326,0.2701326 0 0 0 -0.14744,0.17306 0.2701326,0.2701326 0 0 0 -5.5e-4,0.002 0.2701326,0.2701326 0 0 0 -0.004,0.0155 0.2701326,0.2701326 0 0 0 0.0543,0.23514 l 0.71163,1.21644 a 0.2701326,0.2701326 0 1 0 0.4664,-0.27239 l -0.48502,-0.82935 c 2.89152,0.24445 5.15724,2.66399 5.15724,5.61945 a 0.27021277,0.27021277 0 1 0 0.54012,0 c 0,-3.13869 -2.34705,-5.73531 -5.37965,-6.12892 l 0.55409,-0.37716 a 0.2701326,0.2701326 0 0 0 -0.15987,-0.49511 z m 4.8064,1.28279 c -0.44389,0 -0.80987,0.36629 -0.80987,0.81034 0,0.44389 0.36551,0.80987 0.80987,0.80987 0.4439,0 0.81034,-0.36551 0.81034,-0.80987 0,-0.44467 -0.36629,-0.81034 -0.81034,-0.81034 z m 3.66609,0 c -0.44389,0 -0.81003,0.36629 -0.81003,0.81034 0,0.44389 0.36552,0.80987 0.81003,0.80987 0.4439,0 0.81026,-0.36551 0.81026,-0.80987 0,-0.44467 -0.36629,-0.81034 -0.81026,-0.81034 z m -3.66609,0.54012 c 0.15211,0 0.27006,0.11796 0.27006,0.27006 0,0.15211 -0.11795,0.27006 -0.27006,0.27006 -0.1521,0 -0.27006,-0.11795 -0.27006,-0.27006 0,-0.1521 0.11796,-0.27006 0.27006,-0.27006 z m 3.66609,0 c 0.1521,0 0.27006,0.11796 0.27006,0.27006 0,0.15211 -0.11718,0.27006 -0.27006,0.27006 -0.1521,0 -0.27006,-0.11795 -0.27006,-0.27006 0,-0.1521 0.11796,-0.27006 0.27006,-0.27006 z m -6.39604,3.83224 c -0.44389,0 -0.81034,0.36551 -0.81034,0.80987 0,0.4439 0.36629,0.81034 0.81034,0.81034 0.4439,0 0.80988,-0.36629 0.80988,-0.81034 0,-0.44389 -0.36552,-0.80987 -0.80988,-0.80987 z m 9.08812,0 c -0.44467,0 -0.80995,0.36551 -0.80995,0.80987 0,0.4439 0.36551,0.81034 0.80995,0.81034 0.44389,0 0.81026,-0.36629 0.81026,-0.81034 0,-0.44389 -0.36629,-0.80987 -0.81026,-0.80987 z m -9.08812,0.54012 c 0.15211,0 0.26929,0.11796 0.26929,0.27006 0,0.15211 -0.11718,0.27006 -0.26929,0.27006 -0.1521,0 -0.27006,-0.11795 -0.27006,-0.27006 0,-0.1521 0.11796,-0.27006 0.27006,-0.27006 z m 9.08812,0 c 0.1521,0 0.27006,0.11796 0.27006,0.27006 0,0.15211 -0.11796,0.27006 -0.27006,0.27006 -0.1521,0 -0.26928,-0.11795 -0.26928,-0.27006 0,-0.1521 0.11718,-0.27006 0.26928,-0.27006 z m -5.51128,1.67881 1.6e-4,7e-5 a 0.27013268,0.27013268 0 0 0 -0.0388,0.003 h -11.63066 a 0.27017271,0.27017271 0 0 0 0,0.54012 h 11.11746 c -0.13581,0.201 -0.25687,0.40509 -0.37483,0.60066 l -5.3e-4,0.002 -5.3e-4,0.001 c -0.63403,1.07559 -1.13845,2.34511 -0.99294,3.66997 0.0869,0.94537 0.62626,1.87157 1.53166,2.2838 1.12829,0.52693 2.58779,0.4113 3.5285,-0.47804 l 0.002,-0.001 0.001,-0.001 c 0.83774,-0.81531 0.9626,-2.04812 0.77682,-3.0877 l -4.8e-4,-0.002 -3.9e-4,-0.002 c -0.208,-1.06936 -0.66354,-2.1039 -1.31029,-2.98517 h 11.10582 a 0.27017271,0.27017271 0 1 0 0,-0.54012 h -11.66465 a 0.27017271,0.27017271 0 0 0 -0.007,4e-4 0.27014228,0.27014228 0 0 0 -0.008,4.5e-4 0.27017271,0.27017271 0 0 0 -0.0155,0.002 0.27014228,0.27014228 0 0 0 -0.007,10e-4 0.27017271,0.27017271 0 0 0 -0.0155,0.004 0.27014228,0.27014228 0 0 0 -0.008,0.002 0.27017271,0.27017271 0 0 0 -0.0155,0.005 0.27014228,0.27014228 0 0 0 -0.0155,0.004 0.27017271,0.27017271 0 0 0 -0.0155,0.006 0.27014228,0.27014228 0 0 0 -0.008,0.005 0.27017271,0.27017271 0 0 0 -0.0155,0.007 0.27014228,0.27014228 0 0 0 -0.008,0.006 0.27017271,0.27017271 0 0 0 -0.0155,0.008 0.27014228,0.27014228 0 0 0 -0.008,0.008 0.27017271,0.27017271 0 0 0 -0.008,0.008 0.27014228,0.27014228 0 0 0 -0.008,0.008 0.27017271,0.27017271 0 0 0 -0.008,0.008 0.27014228,0.27014228 0 0 0 -0.008,0.008 0.27017271,0.27017271 0 0 0 -0.007,0.008 0.27014228,0.27014228 0 0 0 -0.008,0.0155 0.27017271,0.27017271 0 0 0 -0.005,0.008 0.27014228,0.27014228 0 0 0 -0.008,0.0155 0.27017271,0.27017271 0 0 0 -0.004,0.008 0.27014228,0.27014228 0 0 0 -0.006,0.0155 0.27017271,0.27017271 0 0 0 -0.004,0.008 0.27014228,0.27014228 0 0 0 -0.006,0.0155 0.27017271,0.27017271 0 0 0 -0.002,0.006 0.27014228,0.27014228 0 0 0 -0.004,0.0155 0.27017271,0.27017271 0 0 0 -0.002,0.008 0.27014228,0.27014228 0 0 0 -0.002,0.0155 0.27017271,0.27017271 0 0 0 -5.3e-4,0.007 0.27014228,0.27014228 0 0 0 -4e-4,0.0155 0.27017271,0.27017271 0 0 0 8e-5,0.008 0.27014228,0.27014228 0 0 0 0.002,0.0233 0.27017271,0.27017271 0 0 0 5.3e-4,0.004 0.27014228,0.27014228 0 0 0 0.004,0.0233 0.27017271,0.27017271 0 0 0 0.002,0.006 0.27014228,0.27014228 0 0 0 0.006,0.0233 0.27017271,0.27017271 0 0 0 0.001,0.004 0.27014228,0.27014228 0 0 0 0.008,0.0233 0.27017271,0.27017271 0 0 0 0.003,0.007 0.27014228,0.27014228 0 0 0 0.008,0.0155 0.27017271,0.27017271 0 0 0 0.004,0.007 0.27014228,0.27014228 0 0 0 0.0155,0.0155 0.27017271,0.27017271 0 0 0 0.002,0.003 0.27014228,0.27014228 0 0 0 0.0155,0.0155 c 0.77216,0.89314 1.31795,2.02143 1.54331,3.18176 0.16375,0.92263 0.031,1.96027 -0.6216,2.60004 -0.75043,0.70775 -1.99388,0.81608 -2.92831,0.37871 l -0.002,-0.001 -10e-4,-4.5e-4 c -0.69843,-0.3174 -1.14791,-1.07039 -1.21822,-1.84395 v -0.003 l -3.9e-4,-0.002 c -0.12727,-1.15187 0.31817,-2.31601 0.92116,-3.33937 0.21263,-0.34999 0.41363,-0.69223 0.66041,-0.96772 a 0.27013268,0.27013268 0 0 0 0.006,-0.007 0.27017271,0.27017271 0 0 0 0.007,-0.008 0.27013268,0.27013268 0 0 0 -0.2072,-0.43846 z m 1.0198,0.90532 c -0.27938,0 -0.4796,0.16297 -0.69223,0.36784 -0.21264,0.20566 -0.42527,0.4796 -0.62083,0.79762 -0.39035,0.63557 -0.71318,1.44079 -0.71318,2.20441 0,0.74578 0.26618,1.29878 0.66274,1.64342 0.39578,0.34456 0.89888,0.48037 1.36295,0.48037 0.47417,0 0.97851,-0.13503 1.37228,-0.48114 0.39345,-0.34534 0.65342,-0.89905 0.65342,-1.64296 0,-0.76129 -0.31119,-1.56589 -0.69688,-2.20286 -0.19246,-0.31818 -0.40432,-0.59367 -0.62006,-0.80025 -0.21574,-0.20643 -0.42915,-0.36707 -0.70852,-0.36707 z m 0,0.54013 c 0.0155,0 0.16685,0.0543 0.33525,0.21651 0.1684,0.16142 0.35853,0.40432 0.53159,0.6899 0.34533,0.57116 0.6185,1.31616 0.6185,1.92326 0,0.62393 -0.19634,0.99721 -0.46873,1.23669 -0.27317,0.23902 -0.64566,0.34689 -1.01615,0.34689 -0.35775,0 -0.73258,-0.10709 -1.00846,-0.34766 -0.27627,-0.24058 -0.47649,-0.61385 -0.47649,-1.23623 0,-0.60454 0.28248,-1.34969 0.63325,-1.92171 0.17538,-0.28636 0.36707,-0.53003 0.53547,-0.69223 0.16762,-0.16219 0.3236,-0.21573 0.31662,-0.21573 z m -11.89466,1.01684 c -0.23592,0 -0.45244,0.0776 -0.62394,0.14589 -0.1715,0.0698 -0.29955,0.13969 -0.29955,0.13969 a 0.27025989,0.27025989 0 1 0 0.2623,0.47261 c 0,0 0.10011,-0.0543 0.2398,-0.11175 0.14046,-0.0543 0.31972,-0.10632 0.42139,-0.10632 0.10166,0 0.1521,0.031 0.2654,0.0923 0.11408,0.0621 0.29102,0.15987 0.52693,0.15987 0.23592,0 0.41363,-0.097 0.52693,-0.15987 0.11408,-0.0621 0.16375,-0.0923 0.26541,-0.0923 0.10166,0 0.1521,0.031 0.2654,0.0923 0.11408,0.0621 0.29102,0.15987 0.52693,0.15987 0.23592,0 0.41363,-0.097 0.52693,-0.15987 0.11408,-0.0621 0.16452,-0.0923 0.26541,-0.0923 0.10166,0 0.15133,0.031 0.2654,0.0923 0.11408,0.0621 0.29102,0.15987 0.52693,0.15987 0.23592,0 0.41363,-0.097 0.52694,-0.15987 0.11407,-0.0621 0.16374,-0.0923 0.2654,-0.0923 0.10166,0 0.15133,0.031 0.26541,0.0923 0.11407,0.0621 0.29101,0.15987 0.52693,0.15987 0.23591,0 0.41363,-0.097 0.52693,-0.15987 0.11407,-0.0621 0.16374,-0.0923 0.2654,-0.0923 0.10166,0 0.15211,0.031 0.26541,0.0923 0.11408,0.0621 0.29101,0.15987 0.52693,0.15987 0.23591,0 0.41363,-0.097 0.52693,-0.15987 0.11408,-0.0621 0.16374,-0.0923 0.2654,-0.0923 a 0.27017163,0.27017163 0 0 0 0,-0.54012 c -0.23591,0 -0.41362,0.097 -0.52693,0.15986 -0.11407,0.0621 -0.16374,0.0924 -0.2654,0.0924 -0.10166,0 -0.15211,-0.031 -0.26541,-0.0924 -0.11408,-0.0621 -0.29101,-0.15986 -0.52693,-0.15986 -0.23591,0 -0.41363,0.097 -0.52693,0.15986 -0.11408,0.0621 -0.16374,0.0924 -0.2654,0.0924 -0.10166,0 -0.15133,-0.031 -0.26541,-0.0924 -0.11408,-0.0621 -0.29101,-0.15986 -0.52693,-0.15986 -0.23592,0 -0.41363,0.097 -0.52693,0.15986 -0.11408,0.0621 -0.16374,0.0924 -0.26541,0.0924 -0.10166,0 -0.15132,-0.031 -0.2654,-0.0924 -0.11408,-0.0621 -0.29102,-0.15986 -0.52693,-0.15986 -0.23592,0 -0.41363,0.097 -0.52693,0.15986 -0.11408,0.0621 -0.16375,0.0924 -0.26541,0.0924 -0.10166,0 -0.1521,-0.031 -0.2654,-0.0924 -0.11408,-0.0621 -0.29102,-0.15986 -0.52693,-0.15986 -0.23592,0 -0.41363,0.097 -0.52693,0.15986 -0.11408,0.0621 -0.16375,0.0924 -0.26541,0.0924 -0.10166,0 -0.1521,-0.031 -0.2654,-0.0924 -0.11408,-0.0621 -0.29102,-0.15986 -0.52693,-0.15986 z m 15.85215,0 a 0.27017163,0.27017163 0 0 0 0,0.54012 c 0.10166,0 0.1521,0.031 0.2654,0.0923 0.11408,0.0621 0.29102,0.15987 0.52693,0.15987 0.23592,0 0.41363,-0.097 0.52693,-0.15987 0.11408,-0.0621 0.16375,-0.0923 0.26541,-0.0923 0.10166,0 0.1521,0.031 0.26541,0.0923 0.11407,0.0621 0.29101,0.15987 0.52693,0.15987 0.23591,0 0.41362,-0.097 0.52693,-0.15987 0.11407,-0.0621 0.16374,-0.0923 0.2654,-0.0923 0.10166,0 0.15133,0.031 0.26541,0.0923 0.11407,0.0621 0.29101,0.15987 0.52693,0.15987 0.23591,0 0.41363,-0.097 0.52693,-0.15987 0.11408,-0.0621 0.16374,-0.0923 0.2654,-0.0923 0.10166,0 0.15133,0.031 0.26541,0.0923 0.11408,0.0621 0.29101,0.15987 0.52693,0.15987 0.23591,0 0.41363,-0.097 0.52693,-0.15987 0.11408,-0.0621 0.16452,-0.0923 0.2654,-0.0923 0.10167,0 0.15211,0.031 0.26541,0.0923 0.11408,0.0621 0.29101,0.15987 0.52693,0.15987 0.23592,0 0.41285,-0.097 0.52693,-0.15987 0.11408,-0.0621 0.16375,-0.0923 0.26541,-0.0923 0.10166,0 0.2817,0.0466 0.42216,0.10632 0.14046,0.0543 0.2398,0.11175 0.2398,0.11175 a 0.27013268,0.27013268 0 1 0 0.26152,-0.47261 c 0,0 -0.12804,-0.0698 -0.29955,-0.13969 -0.1715,-0.0698 -0.38802,-0.14589 -0.62393,-0.14589 -0.23592,0 -0.41363,0.097 -0.52693,0.15986 -0.11408,0.0621 -0.16375,0.0924 -0.26541,0.0924 -0.10166,0 -0.1521,-0.031 -0.2654,-0.0924 -0.11408,-0.0621 -0.29102,-0.15986 -0.52694,-0.15986 -0.23591,0 -0.41362,0.097 -0.52693,0.15986 -0.11407,0.0621 -0.16374,0.0924 -0.2654,0.0924 -0.10166,0 -0.15133,-0.031 -0.26541,-0.0924 -0.11407,-0.0621 -0.29101,-0.15986 -0.52693,-0.15986 -0.23591,0 -0.41363,0.097 -0.52693,0.15986 -0.11408,0.0621 -0.16374,0.0924 -0.2654,0.0924 -0.10166,0 -0.15211,-0.031 -0.26541,-0.0924 -0.11408,-0.0621 -0.29101,-0.15986 -0.52693,-0.15986 -0.23591,0 -0.41363,0.097 -0.52693,0.15986 -0.11408,0.0621 -0.16374,0.0924 -0.2654,0.0924 -0.10167,0 -0.15211,-0.031 -0.26541,-0.0924 -0.11408,-0.0621 -0.29101,-0.15986 -0.52693,-0.15986 -0.23592,0 -0.41363,0.097 -0.52693,0.15986 -0.11408,0.0621 -0.16374,0.0924 -0.26541,0.0924 -0.10166,0 -0.1521,-0.031 -0.2654,-0.0924 -0.11408,-0.0621 -0.29102,-0.15986 -0.52693,-0.15986 z m -15.29837,2.131 c -0.4439,0 -0.81027,0.36552 -0.81027,0.81003 0,0.4439 0.36629,0.81034 0.81027,0.81034 0.44467,0 0.81003,-0.36629 0.81003,-0.81034 0,-0.44389 -0.36552,-0.81003 -0.81003,-0.81003 z m 3.24011,0 c -0.44389,0 -0.81026,0.36552 -0.81034,0.81003 0,0.4439 0.3663,0.81034 0.81034,0.81034 0.4439,0 0.81034,-0.36629 0.81034,-0.81034 0,-0.44389 -0.36629,-0.81003 -0.81034,-0.81003 z m 3.24043,0 c -0.44389,0 -0.81026,0.36552 -0.81034,0.81003 0,0.4439 0.36629,0.81034 0.81034,0.81034 0.4439,0 0.81003,-0.36629 0.81003,-0.81034 0,-0.44389 -0.36551,-0.81003 -0.81003,-0.81003 z m 9.72067,0 c -0.44389,0 -0.80987,0.36552 -0.80987,0.81003 0,0.4439 0.36551,0.81034 0.80987,0.81034 0.4439,0 0.81026,-0.36629 0.81026,-0.81034 0,-0.44389 -0.36629,-0.81003 -0.81026,-0.81003 z m 3.24051,0 c -0.4439,0 -0.81034,0.36552 -0.81034,0.81003 0,0.4439 0.36629,0.81034 0.81034,0.81034 0.44389,0 0.80987,-0.36629 0.80987,-0.81034 0,-0.44389 -0.36551,-0.81003 -0.80987,-0.81003 z m 3.24004,0 c -0.44467,0 -0.80995,0.36552 -0.80995,0.81003 0,0.4439 0.36551,0.81034 0.80995,0.81034 0.44389,0 0.81026,-0.36629 0.81026,-0.81034 0,-0.44389 -0.36629,-0.81003 -0.81026,-0.81003 z m -22.68176,0.54013 c 0.1521,0 0.26928,0.11795 0.26928,0.27006 0,0.1521 -0.11718,0.27006 -0.26928,0.27006 -0.15211,0 -0.27006,-0.11796 -0.27006,-0.27006 0,-0.15211 0.11795,-0.27006 0.27006,-0.27006 z m 3.24011,0 c 0.15211,0 0.27007,0.11795 0.27007,0.27006 0,0.1521 -0.11796,0.27006 -0.27007,0.27006 -0.1521,0 -0.27006,-0.11796 -0.27006,-0.27006 0,-0.15211 0.11796,-0.27006 0.27006,-0.27006 z m 3.24043,0 c 0.15211,0 0.27007,0.11795 0.27007,0.27006 0,0.1521 -0.11796,0.27006 -0.27007,0.27006 -0.1521,0 -0.27006,-0.11796 -0.27006,-0.27006 0,-0.15211 0.11796,-0.27006 0.27006,-0.27006 z m 9.72067,0 c 0.15211,0 0.27006,0.11795 0.27006,0.27006 0,0.1521 -0.11795,0.27006 -0.27006,0.27006 -0.1521,0 -0.27006,-0.11796 -0.27006,-0.27006 0,-0.15211 0.11796,-0.27006 0.27006,-0.27006 z m 3.24051,0 c 0.1521,0 0.27006,0.11795 0.27006,0.27006 0,0.1521 -0.11796,0.27006 -0.27006,0.27006 -0.15211,0 -0.27006,-0.11796 -0.27006,-0.27006 0,-0.15211 0.11795,-0.27006 0.27006,-0.27006 z m 3.24004,0 c 0.1521,0 0.27006,0.11795 0.27006,0.27006 0,0.1521 -0.11796,0.27006 -0.27006,0.27006 -0.15211,0 -0.27006,-0.11796 -0.27006,-0.27006 0,-0.15211 0.11795,-0.27006 0.27006,-0.27006 z m -22.83759,2.5437 a 0.27013268,0.27013268 0 0 0 -0.003,1.5e-4 h -0.39655 -0.39578 a 0.27013268,0.27013268 0 1 0 0,0.54012 h 0.39578 0.39655 a 0.27013268,0.27013268 0 1 0 0.003,-0.54012 z m 1.58552,0 a 0.27013268,0.27013268 0 0 0 -0.003,1.5e-4 h -0.39656 -0.39655 a 0.27013268,0.27013268 0 1 0 0,0.54012 h 0.39655 0.39656 a 0.27013268,0.27013268 0 1 0 0.003,-0.54012 z m 1.58522,0 a 0.27013268,0.27013268 0 0 0 -0.003,1.5e-4 h -0.39578 -0.39655 a 0.27013268,0.27013268 0 1 0 0,0.54012 h 0.39655 0.39578 a 0.27013268,0.27013268 0 1 0 0.003,-0.54012 z m 1.58545,0 a 0.27013268,0.27013268 0 0 0 -0.003,1.5e-4 h -0.39656 -0.39655 a 0.27013268,0.27013268 0 1 0 0,0.54012 h 0.39655 0.39656 a 0.27013268,0.27013268 0 1 0 0.003,-0.54012 z m 1.5856,0 a 0.27013268,0.27013268 0 0 0 -0.003,1.5e-4 h -0.39655 -0.39656 a 0.27013268,0.27013268 0 1 0 0,0.54012 h 0.39656 0.39655 a 0.27013268,0.27013268 0 1 0 0.003,-0.54012 z m 1.58506,0 a 0.27013268,0.27013268 0 0 0 -0.003,1.5e-4 h -0.39655 -0.39656 a 0.27013268,0.27013268 0 1 0 0,0.54012 h 0.39656 0.39655 a 0.27013268,0.27013268 0 1 0 0.003,-0.54012 z m 1.5856,0 a 0.27013268,0.27013268 0 0 0 -0.003,1.5e-4 h -0.39656 -0.39656 a 0.27013268,0.27013268 0 1 0 0,0.54012 h 0.39656 0.39656 a 0.27013268,0.27013268 0 1 0 0.003,-0.54012 z m 1.58514,0 a 0.27013268,0.27013268 0 0 0 -0.003,1.5e-4 h -0.39655 -0.39656 a 0.27013268,0.27013268 0 1 0 0,0.54012 h 0.39656 0.39655 a 0.27013268,0.27013268 0 1 0 0.003,-0.54012 z m 1.58561,0 a 0.27013268,0.27013268 0 0 0 -0.003,1.5e-4 h -0.39656 -0.39656 a 0.27013268,0.27013268 0 1 0 0,0.54012 h 0.39656 0.39656 a 0.27013268,0.27013268 0 1 0 0.003,-0.54012 z m 1.58506,0 a 0.27013268,0.27013268 0 0 0 -0.003,1.5e-4 h -0.39656 -0.39578 a 0.27013268,0.27013268 0 1 0 0,0.54012 h 0.39578 0.39656 a 0.27013268,0.27013268 0 1 0 0.003,-0.54012 z m 1.5856,0 a 0.27013268,0.27013268 0 0 0 -0.003,1.5e-4 h -0.39656 -0.39655 a 0.27013268,0.27013268 0 1 0 0,0.54012 h 0.39655 0.39656 a 0.27013268,0.27013268 0 1 0 0.003,-0.54012 z m 1.58506,0 a 0.27013268,0.27013268 0 0 0 -0.003,1.5e-4 h -0.39578 -0.39656 a 0.27013268,0.27013268 0 1 0 0,0.54012 h 0.39656 0.39578 a 0.27013268,0.27013268 0 1 0 0.003,-0.54012 z m 1.5856,0 a 0.27013268,0.27013268 0 0 0 -0.003,1.5e-4 h -0.39656 -0.39655 a 0.27013268,0.27013268 0 1 0 0,0.54012 h 0.39655 0.39656 a 0.27013268,0.27013268 0 1 0 0.003,-0.54012 z m 1.58553,0 a 0.27013268,0.27013268 0 0 0 -0.003,1.5e-4 h -0.39656 -0.39656 a 0.27013268,0.27013268 0 1 0 0,0.54012 h 0.39656 0.39656 a 0.27013268,0.27013268 0 1 0 0.003,-0.54012 z m 1.58513,0 a 0.27013268,0.27013268 0 0 0 -0.003,1.5e-4 h -0.39655 -0.39656 a 0.27013268,0.27013268 0 1 0 0,0.54012 h 0.39656 0.39655 a 0.27013268,0.27013268 0 1 0 0.003,-0.54012 z m 1.58553,0 a 0.27013268,0.27013268 0 0 0 -0.003,1.5e-4 h -0.39656 -0.39655 a 0.27013268,0.27013268 0 1 0 0,0.54012 h 0.39655 0.39656 a 0.27013268,0.27013268 0 1 0 0.003,-0.54012 z m -24.17866,2.33254 c -0.23592,0 -0.45244,0.0776 -0.62394,0.14589 -0.1715,0.0699 -0.29955,0.13969 -0.29955,0.13969 a 0.27025984,0.27025984 0 1 0 0.2623,0.47261 c 0,0 0.10011,-0.0543 0.2398,-0.11175 0.14046,-0.0543 0.31972,-0.10632 0.42139,-0.10632 0.10166,0 0.1521,0.031 0.2654,0.0923 0.11408,0.0621 0.29102,0.15986 0.52693,0.15986 0.23592,0 0.41363,-0.097 0.52693,-0.15986 0.11408,-0.0621 0.16375,-0.0923 0.26541,-0.0923 0.10166,0 0.1521,0.031 0.2654,0.0923 0.11408,0.0621 0.29102,0.15986 0.52693,0.15986 0.23592,0 0.41363,-0.097 0.52693,-0.15986 0.11408,-0.0621 0.16452,-0.0923 0.26541,-0.0923 0.10166,0 0.15133,0.031 0.2654,0.0923 0.11408,0.0621 0.29102,0.15986 0.52693,0.15986 0.23592,0 0.41363,-0.097 0.52694,-0.15986 0.11407,-0.0621 0.16374,-0.0923 0.2654,-0.0923 0.10166,0 0.15133,0.031 0.26541,0.0923 0.11407,0.0621 0.29101,0.15986 0.52693,0.15986 0.23591,0 0.41363,-0.097 0.52693,-0.15986 0.11407,-0.0621 0.16374,-0.0923 0.2654,-0.0923 0.10166,0 0.15211,0.031 0.26541,0.0923 0.11408,0.0621 0.29101,0.15986 0.52693,0.15986 0.23591,0 0.41363,-0.097 0.52693,-0.15986 0.11408,-0.0621 0.16374,-0.0923 0.2654,-0.0923 0.10166,0 0.15211,0.031 0.26541,0.0923 0.11408,0.0621 0.29101,0.15986 0.52693,0.15986 0.23592,0 0.41363,-0.097 0.52693,-0.15986 0.11408,-0.0621 0.16374,-0.0923 0.26541,-0.0923 0.10166,0 0.1521,0.031 0.2654,0.0923 0.11408,0.0621 0.29102,0.15986 0.52693,0.15986 0.23592,0 0.41363,-0.097 0.52693,-0.15986 0.11408,-0.0621 0.16375,-0.0923 0.26541,-0.0923 0.10166,0 0.15132,0.031 0.2654,0.0923 0.11408,0.0621 0.29102,0.15986 0.52693,0.15986 0.23592,0 0.41364,-0.097 0.52694,-0.15986 0.11407,-0.0621 0.16374,-0.0923 0.2654,-0.0923 0.10166,0 0.15133,0.031 0.26541,0.0923 0.11408,0.0621 0.29101,0.15986 0.52693,0.15986 0.23591,0 0.41363,-0.097 0.52693,-0.15986 0.11408,-0.0621 0.16374,-0.0923 0.2654,-0.0923 0.10167,0 0.15211,0.031 0.26541,0.0923 0.11408,0.0621 0.29101,0.15986 0.52693,0.15986 0.23592,0 0.41285,-0.097 0.52693,-0.15986 0.11408,-0.0621 0.16374,-0.0923 0.26541,-0.0923 0.10166,0 0.1521,0.031 0.2654,0.0923 0.11408,0.0621 0.29102,0.15986 0.52693,0.15986 0.23592,0 0.41363,-0.097 0.52693,-0.15986 0.11408,-0.0621 0.16375,-0.0923 0.26541,-0.0923 0.10166,0 0.1521,0.031 0.2654,0.0923 0.11408,0.0621 0.29102,0.15986 0.52693,0.15986 0.23592,0 0.41363,-0.097 0.52693,-0.15986 0.11408,-0.0621 0.16375,-0.0923 0.26541,-0.0923 0.10166,0 0.15133,0.031 0.2654,0.0923 0.11408,0.0621 0.29102,0.15986 0.52694,0.15986 0.23591,0 0.41362,-0.097 0.52693,-0.15986 0.11407,-0.0621 0.16374,-0.0923 0.2654,-0.0923 0.10166,0 0.15133,0.031 0.26541,0.0923 0.11407,0.0621 0.29101,0.15986 0.52693,0.15986 0.23591,0 0.41363,-0.097 0.52693,-0.15986 0.11408,-0.0621 0.16452,-0.0923 0.2654,-0.0923 0.10166,0 0.15211,0.031 0.26541,0.0923 0.11408,0.0621 0.29101,0.15986 0.52693,0.15986 0.23591,0 0.41285,-0.097 0.52693,-0.15986 0.11408,-0.0621 0.16374,-0.0923 0.2654,-0.0923 0.10167,0 0.28171,0.0466 0.42217,0.10632 0.14046,0.0543 0.2398,0.11175 0.2398,0.11175 a 0.27013268,0.27013268 0 1 0 0.26152,-0.47261 c 0,0 -0.12805,-0.0698 -0.29955,-0.13969 -0.1715,-0.0698 -0.38802,-0.14589 -0.62394,-0.14589 -0.23591,0 -0.41362,0.097 -0.52693,0.15986 -0.11407,0.0621 -0.16374,0.0924 -0.2654,0.0924 -0.10166,0 -0.15211,-0.031 -0.26541,-0.0924 -0.11407,-0.0621 -0.29101,-0.15986 -0.52693,-0.15986 -0.23591,0 -0.41363,0.097 -0.52693,0.15986 -0.11408,0.0621 -0.16374,0.0924 -0.2654,0.0924 -0.10166,0 -0.15133,-0.031 -0.26541,-0.0924 -0.11408,-0.0621 -0.29101,-0.15986 -0.52693,-0.15986 -0.23591,0 -0.41363,0.097 -0.52693,0.15986 -0.11408,0.0621 -0.16374,0.0924 -0.2654,0.0924 -0.10167,0 -0.15211,-0.031 -0.26541,-0.0924 -0.11408,-0.0621 -0.29101,-0.15986 -0.52693,-0.15986 -0.23592,0 -0.41363,0.097 -0.52693,0.15986 -0.11408,0.0621 -0.16375,0.0924 -0.26541,0.0924 -0.10166,0 -0.1521,-0.031 -0.2654,-0.0924 -0.11408,-0.0621 -0.29102,-0.15986 -0.52693,-0.15986 -0.23592,0 -0.41363,0.097 -0.52693,0.15986 -0.11408,0.0621 -0.16375,0.0924 -0.26541,0.0924 -0.10166,0 -0.1521,-0.031 -0.2654,-0.0924 -0.11408,-0.0621 -0.29102,-0.15986 -0.52693,-0.15986 -0.23592,0 -0.41363,0.097 -0.52693,0.15986 -0.11408,0.0621 -0.16375,0.0924 -0.26541,0.0924 -0.10166,0 -0.1521,-0.031 -0.26541,-0.0924 -0.11407,-0.0621 -0.29101,-0.15986 -0.52693,-0.15986 -0.23591,0 -0.41362,0.097 -0.52693,0.15986 -0.11407,0.0621 -0.16374,0.0924 -0.2654,0.0924 -0.10166,0 -0.15133,-0.031 -0.26541,-0.0924 -0.11407,-0.0621 -0.29101,-0.15986 -0.52693,-0.15986 -0.23591,0 -0.41363,0.097 -0.52693,0.15986 -0.11408,0.0621 -0.16375,0.0924 -0.26541,0.0924 -0.10166,0 -0.1521,-0.031 -0.2654,-0.0924 -0.11408,-0.0621 -0.29102,-0.15986 -0.52693,-0.15986 -0.23592,0 -0.41363,0.097 -0.52693,0.15986 -0.11408,0.0621 -0.16375,0.0924 -0.26541,0.0924 -0.10166,0 -0.1521,-0.031 -0.2654,-0.0924 -0.11408,-0.0621 -0.29102,-0.15986 -0.52693,-0.15986 -0.23592,0 -0.41363,0.097 -0.52693,0.15986 -0.11408,0.0621 -0.16375,0.0924 -0.26541,0.0924 -0.10166,0 -0.1521,-0.031 -0.26541,-0.0924 -0.11407,-0.0621 -0.29101,-0.15986 -0.52693,-0.15986 -0.23591,0 -0.41362,0.097 -0.52693,0.15986 -0.11407,0.0621 -0.16374,0.0924 -0.2654,0.0924 -0.10166,0 -0.15211,-0.031 -0.26541,-0.0924 -0.11408,-0.0621 -0.29101,-0.15986 -0.52693,-0.15986 -0.23591,0 -0.41363,0.097 -0.52693,0.15986 -0.11408,0.0621 -0.16374,0.0924 -0.2654,0.0924 -0.10166,0 -0.15133,-0.031 -0.26541,-0.0924 -0.11408,-0.0621 -0.29101,-0.15986 -0.52693,-0.15986 -0.23592,0 -0.41363,0.097 -0.52693,0.15986 -0.11408,0.0621 -0.16374,0.0924 -0.26541,0.0924 -0.10166,0 -0.15132,-0.031 -0.2654,-0.0924 -0.11408,-0.0621 -0.29102,-0.15986 -0.52693,-0.15986 -0.23592,0 -0.41363,0.097 -0.52693,0.15986 -0.11408,0.0621 -0.16375,0.0924 -0.26541,0.0924 -0.10166,0 -0.1521,-0.031 -0.2654,-0.0924 -0.11408,-0.0621 -0.29102,-0.15986 -0.52693,-0.15986 -0.23592,0 -0.41363,0.097 -0.52693,0.15986 -0.11408,0.0621 -0.16375,0.0924 -0.26541,0.0924 -0.10166,0 -0.1521,-0.031 -0.2654,-0.0924 -0.11408,-0.0621 -0.29102,-0.15986 -0.52693,-0.15986 z"/></g><text x="0" y="41.458334" fill="#000000" font-size="5px" font-weight="bold" font-family="'Helvetica Neue', Helvetica, Arial-Unicode, Arial, Sans-serif">Created by Lia Rahdiah</text><text x="0" y="46.458334" fill="#000000" font-size="5px" font-weight="bold" font-family="'Helvetica Neue', Helvetica, Arial-Unicode, Arial, Sans-serif">from the Noun Project</text></svg>