<svg xmlns="http://www.w3.org/2000/svg" xmlns:xlink="http://www.w3.org/1999/xlink" version="1.1" x="0px" y="0px" viewBox="0 0 100 125" enable-background="new 0 0 100 100" xml:space="preserve"><g><path d="M50.786,13.28V6.5h-2.5v6.78c-18.689,0.628-32.125,15.292-32.125,35.345c0,10.539,3.518,21.364,9.652,29.7   c3.419,4.646,7.378,8.18,11.645,10.495V94h2.5v-3.969c2.693,1.13,5.487,1.777,8.328,1.926V94h2.5v-2.043   c2.866-0.15,5.685-0.805,8.399-1.953V94h2.5v-5.219c4.239-2.316,8.173-5.837,11.573-10.457c6.134-8.336,9.652-19.161,9.652-29.7   C82.911,28.572,69.475,13.908,50.786,13.28z M50.786,22.345c4.526,0.458,19.55,3.134,26.148,18.417   c-5.703-8.559-15.064-13.864-26.148-14.236V22.345z M79.703,41.006C72.794,23.46,55.496,20.369,50.786,19.853v-4.074   C65.832,16.301,76.891,26.223,79.703,41.006z M48.286,15.779v10.747c-13.748,0.461-24.847,8.514-29.602,20.948   C19.168,29.179,31.139,16.374,48.286,15.779z M19.159,55.396c2.433-15.37,14.049-25.821,29.127-26.37v47.121h-5.453v2.5h5.453   v0.743h-3.12v2.5h3.12v7.563C34.345,88.59,21.756,73.42,19.159,55.396z M50.786,89.453V81.89h2.881v-2.5h-2.881v-0.743H57v-2.5   h-6.214V29.026c15.079,0.548,26.694,10.999,29.128,26.369C77.317,73.419,64.728,88.59,50.786,89.453z"/><path d="M44.609,51.847l1.418-2.06c-12.24-8.425-20.534,0.083-20.616,0.17l1.814,1.72C27.294,51.606,34.111,44.618,44.609,51.847z"/><path d="M53.833,49.957l1.814,1.72c0.068-0.07,6.889-7.057,17.384,0.17l1.418-2.06C62.209,41.362,53.915,49.87,53.833,49.957z"/><path d="M45.999,56.809l-1.074-0.885c-3.13-2.579-6.317-3.887-9.475-3.887c-5.445,0-8.762,3.884-8.9,4.049l-0.72,0.858l0.775,0.809   c2.617,2.732,5.574,4.117,8.788,4.117c5.373,0,9.441-3.921,9.612-4.088L45.999,56.809z M35.309,57.627   c-0.407,0-0.738-0.331-0.738-0.738s0.331-0.738,0.738-0.738s0.738,0.331,0.738,0.738S35.716,57.627,35.309,57.627z M32.7,54.989   c-0.391,0.535-0.628,1.188-0.628,1.899c0,0.79,0.295,1.505,0.767,2.067c-1.226-0.399-2.405-1.086-3.527-2.068   C30.033,56.283,31.198,55.482,32.7,54.989z M37.694,59.061c0.524-0.576,0.853-1.334,0.853-2.172c0-0.777-0.287-1.481-0.745-2.041   c1.421,0.367,2.863,1.057,4.313,2.074C41.124,57.641,39.555,58.582,37.694,59.061z"/><path d="M55.026,56.153l-0.775,0.809l0.72,0.858c0.139,0.165,3.455,4.049,8.9,4.049h0.001c3.156,0,6.344-1.308,9.474-3.887   l1.073-0.885l-0.994-0.974c-0.17-0.167-4.239-4.088-9.611-4.088C60.6,52.036,57.644,53.421,55.026,56.153z M63.73,57.756   c-0.407,0-0.738-0.331-0.738-0.738s0.331-0.738,0.738-0.738s0.738,0.331,0.738,0.738S64.138,57.756,63.73,57.756z M61.259,54.95   c-0.471,0.563-0.767,1.277-0.767,2.067c0,0.711,0.237,1.364,0.628,1.899c-1.502-0.494-2.666-1.294-3.388-1.898   C58.854,56.036,60.034,55.35,61.259,54.95z M66.224,59.059c0.458-0.559,0.745-1.264,0.745-2.041c0-0.838-0.328-1.596-0.854-2.172   c1.861,0.479,3.43,1.421,4.42,2.139C69.085,58.002,67.645,58.691,66.224,59.059z"/><path d="M55.269,60.709l-2.494-0.182c-0.028,0.395-0.639,9.704,5.799,13.308l1.221-2.182C54.752,68.831,55.263,60.79,55.269,60.709   z"/><path d="M74.232,59.788c-5.626,6.327-15.412,3.877-15.51,3.853l-0.634,2.418c0.198,0.052,2.336,0.594,5.237,0.594   c3.829,0,8.987-0.943,12.775-5.202L74.232,59.788z"/><rect x="52.586" y="35.583" width="6.598" height="2.5"/><rect x="52.586" y="40.283" width="17.581" height="2.5"/><path d="M60.745,77.375l1.09,2.25c0.26-0.125,6.397-3.139,10.045-8.737l-2.094-1.365C66.526,74.525,60.803,77.348,60.745,77.375z"/></g><text x="0" y="115" fill="#000000" font-size="5px" font-weight="bold" font-family="'Helvetica Neue', Helvetica, Arial-Unicode, Arial, Sans-serif">Created by Creative Mania</text><text x="0" y="120" fill="#000000" font-size="5px" font-weight="bold" font-family="'Helvetica Neue', Helvetica, Arial-Unicode, Arial, Sans-serif">from the Noun Project</text></svg>