<svg xmlns="http://www.w3.org/2000/svg" xmlns:xlink="http://www.w3.org/1999/xlink" version="1.1" x="0px" y="0px" viewBox="0 0 100 125" style="enable-background:new 0 0 100 100;" xml:space="preserve"><path d="M23.3218975,67.8432617c-0.1391602,0.2402344-0.3911133,0.3740234-0.6494141,0.3740234  c-0.1279297,0-0.2573242-0.0322266-0.3754883-0.1015625c-0.2841797-0.1640625-0.5424805-0.3710938-0.7675781-0.6162109  c-0.2802734-0.3037109-0.2612305-0.7783203,0.043457-1.0595703c0.3051758-0.2802734,0.7792969-0.2617188,1.0600586,0.0439453  c0.1225586,0.1328125,0.2626953,0.2451172,0.4160156,0.3349609C23.4073467,67.0258789,23.529417,67.4848633,23.3218975,67.8432617z   M26.4161358,27.0751953c-0.6738281-0.0351563-1.3120117,0.1914063-1.8100586,0.6386719  c-0.4985352,0.4477539-0.7929688,1.0629883-0.8286133,1.7319336c-0.0219727,0.4135742,0.2954102,0.7670898,0.7089844,0.7890625  c0.0136719,0.0004883,0.0273438,0.0009766,0.0405273,0.0009766c0.3959961,0,0.7270508-0.3100586,0.7485352-0.7099609  c0.0292969-0.5546875,0.5146484-0.9824219,1.0605469-0.9526367c0.4267578,0.0244141,0.7670898-0.2958984,0.7890625-0.7089844  C27.1470928,27.4506836,26.82971,27.097168,26.4161358,27.0751953z M22.1592999,65.2709961  c0-0.7402344,0.4448242-1.3945313,1.1333008-1.6650391c0.3852539-0.1523438,0.574707-0.5878906,0.4228516-0.9736328  s-0.5874023-0.5712891-0.9726563-0.4228516c-1.265625,0.4990234-2.0834961,1.7001953-2.0834961,3.0615234  c0,0.4140625,0.3359375,0.75,0.75,0.75S22.1592999,65.6850586,22.1592999,65.2709961z M75.3648682,31.8164063  c0.7089844,0,1.2861328,0.5771484,1.2861328,1.2866211c0,0.4140625,0.3359375,0.75,0.75,0.75s0.75-0.3359375,0.75-0.75  c0-1.5366211-1.25-2.7866211-2.7861328-2.7866211c-0.4140625,0-0.75,0.3359375-0.75,0.75  S74.9508057,31.8164063,75.3648682,31.8164063z M18.0479717,65.2709961c0-3.2539063,2.6469727-5.9003906,5.9008789-5.9003906  s5.9008789,2.6464844,5.9008789,5.9003906c0,0.2470703-0.0185547,0.4990234-0.0556641,0.7607422  c0.6201172,0.6591797,0.9765625,1.5361328,0.9765625,2.4472656c0,1.9765625-1.6079102,3.5839844-3.5839844,3.5839844  c-0.9145508,0-1.7700195-0.3417969-2.4272461-0.9550781c-0.2802734,0.0429688-0.5488281,0.0644531-0.8105469,0.0644531  C20.6949444,71.1723633,18.0479717,68.5249023,18.0479717,65.2709961z M20.0479717,65.2709961  c0,2.1513672,1.75,3.9013672,3.9008789,3.9013672c0.2827148,0,0.5786133-0.0400391,0.9316406-0.1269531  c0.0791016-0.0195313,0.1591797-0.0292969,0.2387695-0.0292969c0.3110352,0,0.6103516,0.1455078,0.8017578,0.4023438  c0.3056641,0.4091797,0.7666016,0.6445313,1.265625,0.6445313c0.8735352,0,1.5839844-0.7109375,1.5839844-1.5839844  c0-0.5048828-0.2382813-0.96875-0.6542969-1.2734375c-0.324707-0.2373047-0.4755859-0.6455078-0.3828125-1.0371094  c0.078125-0.3300781,0.1162109-0.6240234,0.1162109-0.8974609c0-2.1503906-1.75-3.9003906-3.9008789-3.9003906  S20.0479717,63.1206055,20.0479717,65.2709961z M42.9591026,82.1166992l-12.3022442-1.171875  c-0.4174805-0.0322266-0.7788086,0.2636719-0.8178711,0.6757813c-0.0395508,0.4121094,0.2631836,0.7783203,0.675293,0.8183594  l6.0599957,0.5772705l6.2422485,0.5946045c0.9865112,0.093811,1.8655396,0.5874634,2.482666,1.3352661  c0.1535034,0.1860352,0.3035278,0.3763428,0.420166,0.5934448c0.1352539,0.2509766,0.394043,0.3945313,0.6611328,0.3945313  c0.1201172,0,0.2416992-0.0283203,0.3544922-0.0888672c0.3647461-0.1962891,0.5019531-0.6513672,0.3056641-1.0166016  C46.2174034,83.2973633,44.6915245,82.2827148,42.9591026,82.1166992z M83.5875244,91.7329102  c0.0712891,0.2978516,0.0019531,0.6123047-0.1875,0.8525391s-0.4785156,0.3808594-0.7851563,0.3808594H15.3516817  c-0.3061523,0-0.5957031-0.140625-0.7851563-0.3808594s-0.2587891-0.5546875-0.1875-0.8525391l1.5415039-6.4355469  c0.5922861-2.4716797,2.3315439-4.3652344,4.5390635-4.9394531l17.182127-4.4746094  c1.2519531-0.3261719,2.1264648-1.5439453,2.1264648-2.9609375v-5.1528931  c-2.9269409-2.3635864-5.4130859-5.741333-7.3109741-9.5870361c-0.1767578,0.0197754-0.3544922,0.0348511-0.532774,0.0348511  c-3.0102539,0-6.2265625-2.7509766-7.1123047-6.2246094c-0.420166-1.649231-0.2609863-3.3778076,0.4025879-4.800354  c-0.5501099-1.8184204-0.8522949-3.7442017-0.8522949-5.7406616v-2.0551758  c0.0262451-1.8482056,0.1847534-3.5274658,0.4811401-5.0960693c-0.8546143-0.2590332-1.6313477-0.7313843-2.2433472-1.4127197  c-0.8837891-0.9833984-1.331543-2.2524414-1.2607422-3.5727539c0.105835-1.9812012,1.3753052-3.6196289,3.1054688-4.3164063  c-0.078186-0.2906494-0.1514893-0.5839844-0.1860352-0.8920898c-0.3369141-3.0029297,1.5595703-5.7226563,4.4042969-6.4931641  c0.5693359-2.3676758,2.5449219-4.1425781,5.022459-4.4204102c1.097168-0.125,2.1982422,0.0688477,3.1826172,0.5454102  c0.8066406-0.9169922,1.9311523-1.5166016,3.1552734-1.6542969c2.6185913-0.2946777,4.9816895,1.531311,5.4164429,4.0996094  h3.1311646c0.1010132-0.5200806,0.2487793-1.0354004,0.4992676-1.5258789  c0.7788086-1.5253906,2.1547852-2.5620117,3.7631836-2.8691406c0.0927734-0.2524414,0.1992188-0.4956055,0.3164063-0.7275391  c0.8232422-1.6098633,2.1992188-2.7714844,3.8740234-3.2719727c1.4931641-0.4448242,3.0585938-0.3105469,4.4511719,0.3740234  c0.8613281-0.7255859,1.9335938-1.1293945,3.041996-1.1293945c2.4707031,0,4.5185547,1.9272461,4.8388672,4.418457  c0.3789063,0.1293945,0.7451172,0.2939453,1.09375,0.4926758c3.171875,1.8071289,4.3671875,5.9916992,2.6630859,9.328125  c-0.8291016,1.6230469-2.2119141,2.8110352-3.8925781,3.3457031c-0.0473022,0.0150146-0.0958862,0.0187988-0.1433716,0.0326538  c0.9291382,1.3386841,1.7456665,2.8200684,2.4350586,4.4331055c1.0020142-0.9610596,2.3582764-1.555603,3.8528442-1.555603  c3.0732422,0,5.5742188,2.5004883,5.5742188,5.5742188s-2.5009766,5.5742188-5.5742188,5.5742188  c-0.6305542,0-1.2346802-0.1102295-1.800415-0.3041382c0.0142822,0.335083,0.0348511,0.663147,0.0396729,1.0092163v2.0693359  c0,1.9967041-0.3022461,3.9227295-0.852478,5.741394c0.663208,1.4220581,0.8227539,3.1503296,0.4022827,4.7996216  c-0.8847656,3.4736328-4.1025391,6.2246094-7.1123047,6.2246094c-0.1782837,0-0.3554688-0.0151367-0.5323486-0.0348511  c-1.897831,3.845459-4.3837318,7.2230225-7.3104286,9.5866089v5.1533203c0,1.4169922,0.8740234,2.6347656,2.1259766,2.9609375  l17.1816444,4.4746094c2.2070313,0.5742188,3.9462891,2.4667969,4.5390625,4.9394531L83.5875244,91.7329102z M70.6412354,47.4926758  c-0.2744141-0.4059448-0.7471313-0.8789673-1.4503784-1.1085205c-0.4949951,3.3294067-1.4436035,6.6856689-2.7711792,9.8123169  c2.0092163-0.215332,4.1732788-2.2527466,4.7967529-4.697937C71.5767822,50.0849609,71.3560791,48.5498047,70.6412354,47.4926758z   M71.7906494,33.1030273c0,1.9707031,1.6035156,3.5742188,3.5742188,3.5742188s3.5742188-1.6035156,3.5742188-3.5742188  s-1.6035156-3.5742188-3.5742188-3.5742188S71.7906494,31.1323242,71.7906494,33.1030273z M52.2349815,20.5214844  c0.9443359,0.5385742,2.0507813,0.5615234,3.0332031,0.0629883c0.1425781-0.0722656,0.2978516-0.1083984,0.453125-0.1083984  c0.1279297,0,0.2558594,0.0244141,0.3769531,0.0737305c0.2695313,0.1098633,0.4765625,0.3305664,0.5703125,0.6049805  c0.3701172,1.0922852,1.0976563,1.9916992,2.0498047,2.5336914c1.7910156,1.0205078,3.9814453,0.5986328,5.3261757-1.0263672  c0.3027344-0.3642578,0.8183594-0.4663086,1.2353516-0.2480469c1.0400391,0.5458984,2.2246094,0.6503906,3.3339844,0.2983398  c1.1689453-0.3710938,2.1337891-1.2055664,2.7177734-2.3491211c1.2246094-2.3979492,0.3847656-5.3950195-1.8720703-6.6806641  c0-0.0004883,0-0.0004883,0-0.0004883c-0.3945313-0.2246094-0.8232422-0.3867188-1.2734375-0.4804688  c-0.4755859-0.0991211-0.8105469-0.5253906-0.7949219-1.0107422c0.0009766-0.0361328,0.0078125-0.1142578,0.0136719-0.1499023  c-0.0058594-1.6171875-1.2988281-3.0073242-2.8876953-3.0073242c-0.8085976,0-1.5615273,0.3642578-2.1210976,1.0263672  c-0.3261719,0.3876953-0.8925781,0.4692383-1.3154297,0.1884766l-0.0986328-0.0668945  c-0.0488281-0.0332031-0.0966797-0.0668945-0.1484375-0.0961914c-1.0029297-0.5708008-2.1494141-0.7050781-3.2373047-0.3798828  c-1.1464844,0.3427734-2.0927734,1.1464844-2.6640625,2.2641602c-0.1523438,0.2993164-0.2773438,0.6318359-0.3710938,0.9858398  c-0.1103516,0.4189453-0.4785156,0.7192383-0.9111328,0.7436523c-1.1884766,0.0664063-2.2353516,0.7646484-2.7983398,1.8681641  C49.9425011,17.347168,50.5631065,19.5698242,52.2349815,20.5214844z M26.2462139,23.8837891  c0.029541,0.2632446,0.0875854,0.5164185,0.1643677,0.7603149c0.0462036,0.0012207,0.0899658-0.0089111,0.1364136-0.0064087  c1.3198242,0.0708008,2.5336914,0.6513672,3.4169922,1.6347656c0.3185425,0.3544312,0.5588989,0.755127,0.7602539,1.1728516  c1.5295391-0.1768188,2.8057232-1.1883545,3.3320293-2.644043c0.1162109-0.3217773,0.3891602-0.5620117,0.7226563-0.6362305  c0.3339844-0.0751953,0.6831055,0.0268555,0.9248047,0.269043c0.8334961,0.8334961,1.9833984,1.2358398,3.1459961,1.1054688  c1.0195313-0.1142578,1.9335938-0.6191406,2.5737305-1.4208984c0.6401367-0.8022461,0.9296875-1.8051758,0.8154297-2.8251953  c-0.03125-0.2758789-0.0966797-0.5595703-0.1958008-0.8432617c-0.1416016-0.4052734-0.0078125-0.8564453,0.331543-1.1196289  c0.8256836-0.6396484,1.2504883-1.6318359,1.1362305-2.6538086c-0.1821289-1.6181641-1.6450195-2.7836914-3.2641602-2.6054688  c-0.9418945,0.105957-1.7548828,0.6469727-2.2304688,1.484375c-0.1396484,0.246582-0.3779297,0.421875-0.6542969,0.4829102  c-0.2763672,0.0605469-0.5654297,0.0024414-0.796875-0.1630859c-0.6577148-0.4702148-1.4370117-0.71875-2.2319336-0.71875  c-0.1411133,0-0.2827148,0.0078125-0.4248047,0.0234375c-1.7915039,0.2011719-3.1835918,1.5932617-3.3857403,3.3847656  c-0.0507813,0.4516602-0.3994141,0.8120117-0.8486328,0.8774414C27.5084209,19.7597656,26.0025616,21.7104492,26.2462139,23.8837891  z M26.1246319,32.5253906c0.7832031,0.046875,1.5429688-0.2246094,2.1289063-0.7509766s0.9321289-1.2495117,0.9741211-2.0366211  c0.0419922-0.7866211-0.2246094-1.5424805-0.7514648-2.1289063c-0.5263672-0.5859375-1.2495117-0.9321289-2.0366211-0.9741211  c-0.0537109-0.0029297-0.1074219-0.0043945-0.1611328-0.0043945c-0.7285156,0-1.421875,0.2651367-1.9677734,0.7553711  c-0.5859375,0.5263672-0.9321289,1.2495117-0.9741211,2.0366211c-0.0419922,0.7866211,0.2246094,1.5424805,0.7514648,2.1289063  C24.614378,32.137207,25.3375225,32.4833984,26.1246319,32.5253906z M26.3624249,41.4516602  c0,1.2952271,0.1466675,2.5554199,0.4095459,3.7727661c0.531189-0.4104614,1.131897-0.6958618,1.784729-0.8445435  c-0.1560059-2.1676025,0.1655273-4.2929077,0.9800415-6.1723633c2.2451172-5.140625,6.7587872-8.3105469,11.7968731-8.3105469  h15.2988281c5.0380859,0,9.5517616,3.1699219,11.7793007,8.2729492c0.0009766,0.0004883,0.0166016,0.0356445,0.0166016,0.0366211  c0.8150024,1.8781128,1.1372681,4.0041504,0.9814453,6.1734009c0.652832,0.1488037,1.2536011,0.4341431,1.784729,0.8446655  c0.2628784-1.2174072,0.4096069-2.4776611,0.4096069-3.7729492v-2.0551758  c-0.0113525-0.8031616-0.0599365-1.5634766-0.1260376-2.3057251c-1.0391846-1.0130615-1.687439-2.4252319-1.687439-3.9877319  c0-0.7025146,0.1360474-1.3724365,0.3743286-1.9920044c-0.8748779-2.3751831-2.0341797-4.465332-3.4242554-6.2384033  c-0.5716553-0.0514526-1.1387329-0.1611938-1.6844482-0.3692017c-1.1904335,1.128418-2.7382851,1.7246094-4.3027382,1.7250977  c-1.0341797,0-2.0761719-0.2612305-3.0253906-0.8017578c-1.0839844-0.6176758-1.9648438-1.5478516-2.5478516-2.6743164  c-1.3173828,0.3613281-2.7285156,0.1953125-3.9355469-0.4931641c-1.5205078-0.8659058-2.4644165-2.4052124-2.71875-4.0756836  h-3.1430664c-0.2086792,0.8457031-0.6376953,1.6271973-1.262207,2.2646484  c0.046875,0.2080078,0.0825195,0.4160156,0.1054688,0.6225586c0.1743164,1.550293-0.2661133,3.0761719-1.2397461,4.2954102  c-0.9731445,1.2197266-2.3632813,1.9868164-3.9140625,2.1606445c-1.3183594,0.1518555-2.6235352-0.152832-3.7265625-0.8393555  c-0.9186401,1.4465942-2.4116211,2.428894-4.1411114,2.7017212c0.0057373,0.1522827,0.0282593,0.3019409,0.0200195,0.4559937  c-0.0708008,1.3198242-0.6513672,2.5336914-1.6347656,3.4169922c-0.7730713,0.694397-1.7262573,1.1004028-2.7384033,1.2161865  c-0.2994995,1.5100098-0.463501,3.1329346-0.4891357,4.932251V41.4516602z M31.5468731,56.1963501  c-1.3275757-3.1266479-2.2761841-6.4828491-2.7711182-9.8123169c-0.7036133,0.2293701-1.1769409,0.7025757-1.451416,1.1086426  c-0.7143555,1.0571289-0.9345703,2.5922852-0.5737305,4.0058594C27.3738995,53.9448242,29.5326519,55.9819946,31.5468731,56.1963501  z M48.9835167,69.3012695c9.7338867,0,17.1372108-12.7832031,18.4145546-24.6269531  c0.2148438-2.0014648-0.0625-3.9628906-0.8037109-5.6708984c0-0.0009766-0.0039063-0.0078125-0.0039063-0.0087891  c-1.9160156-4.3876953-5.7275429-7.0976563-9.9580116-7.0976563H41.3336143c-4.2304688,0-8.0419922,2.7104492-9.9472637,7.0732422  c-0.7558594,1.7426758-1.0336914,3.7036133-0.8178711,5.7036133C31.845335,56.5180664,39.2486534,69.3012695,48.9835167,69.3012695z   M81.34729,90.9663086l-1.2470703-5.2021484c-0.4199219-1.7529297-1.6064453-3.0830078-3.0976563-3.4707031L59.820919,77.8188477  c-2.1328125-0.5556641-3.6220703-2.5693359-3.6220703-4.8964844v-3.7492065  c-2.2192993,1.3483276-4.6412964,2.1281128-7.215332,2.1281128c-2.5740967,0-4.9960938-0.7797241-7.215332-2.1278687v3.7489624  c0,2.3271484-1.4897461,4.3408203-3.6225586,4.8964844l-17.182127,4.4746094  c-1.4912109,0.3876953-2.6782227,1.7177734-3.0976563,3.4707031l-1.246582,5.2021484H81.34729z M61.93713,46.4570313  c-0.2744141,0-0.5058594,0.184082-0.5771484,0.4350586c-0.2792969,0.190918-1.3925781,0.4980469-3.1826172,0.4980469  c-1.7890625,0-2.9023438-0.3071289-3.1816406-0.4980469c-0.0712891-0.2509766-0.3027344-0.4350586-0.5771484-0.4350586  c-0.3310547,0-0.5996094,0.2685547-0.5996094,0.6000977c0,0.4853516,0.3925171,0.8153687,0.9448853,1.0430298  c-0.0114136,0.0006714-0.0290527,0.0106812-0.0386353,0.008728c-0.2675781-0.0483398-0.5322266,0.1274414-0.5830078,0.3999023  c-0.0507813,0.2714844,0.1279297,0.5327148,0.3994141,0.5834961c0.0595703,0.0107422,0.1191406,0.0161133,0.1787109,0.0161133  c0.5176392,0,1.0255127-0.3884277,1.3277588-0.6723022c0.1928711,0.0305786,0.3857422,0.0552368,0.5750732,0.0750122  c-0.1819458,0.0525513-0.3269653,0.2023315-0.3569336,0.4029541c-0.0410156,0.2729492,0.1464844,0.5273438,0.4199219,0.5688477  c0.0498047,0.0073242,0.0976563,0.0107422,0.1445313,0.0107422c0.5530396,0,0.906189-0.4946899,1.1063843-0.9053955  c0.0889893,0.0014038,0.1708374,0.0020752,0.2402954,0.0020752c0.069519,0,0.1514893-0.0007324,0.2406616-0.0021362  c0.1999512,0.4108276,0.5530396,0.9054565,1.1060181,0.9054565c0.046875,0,0.0947266-0.003418,0.1445313-0.0107422  c0.2734375-0.0415039,0.484375-0.293457,0.4433594-0.5668945c-0.0307007-0.2039795-0.1671143-0.3606567-0.3492432-0.4083862  c0.1798096-0.0192261,0.3622437-0.0426025,0.5449219-0.0715942c0.3022461,0.2839355,0.8100586,0.6723633,1.3277588,0.6723633  c0.0595703,0,0.1191406-0.0053711,0.1787109-0.0161133c0.2714844-0.0507813,0.4521484-0.3120117,0.4013672-0.5834961  c-0.0507813-0.2719727-0.3144531-0.4501953-0.5810547-0.4003906c-0.0029297,0.0004883-0.0048828,0.0004883-0.0068359,0.0004883  c-0.0077515,0-0.0229492-0.008728-0.0321045-0.0103149c0.5504761-0.2276001,0.9412842-0.557251,0.9412842-1.0414429  C62.5367393,46.7255859,62.2681847,46.4570313,61.93713,46.4570313z M74.2281494,63.6674805  c0.7373047,0.4580078,1.3320313,1.1005859,1.7314453,1.8603516c0.9560547-0.140625,1.9521484,0.0556641,2.7871094,0.5732422  c1.9453125,1.2080078,2.5449219,3.7734375,1.3378906,5.71875v0.0009766  c-0.6445313,1.0351563-1.6884766,1.7158203-2.8730469,1.9003906c-0.0644531,0.1269531-0.1328125,0.2490234-0.2050781,0.3652344  c-0.6835938,1.1015625-1.7568359,1.8720703-3.0214844,2.1679688c-0.3710938,0.0869141-0.7451172,0.1298828-1.1171875,0.1298828  c-0.8955078,0-1.7753906-0.2490234-2.5546875-0.7333984c-0.8828125-0.5488281-1.5517578-1.3486328-1.9335938-2.2851563  c-1.3623047,0.421875-2.8525391,0.2412109-4.1074219-0.5371094c-2.3505898-1.4609375-3.0751991-4.5615234-1.6162148-6.9130859  c1.3027344-2.0996094,3.8759804-2.90625,6.1054726-2.0185547C70.3463135,62.7104492,72.4996338,62.5932617,74.2281494,63.6674805z   M74.4068604,66.9975586c-0.1982422-0.6806641-0.6367188-1.2597656-1.2333984-1.6308594  c-1.1425781-0.7089844-2.5986328-0.5361328-3.5419922,0.4189453c-0.3183594,0.3222656-0.8173828,0.3876953-1.2089844,0.1640625  c-1.4189453-0.8154297-3.2050781-0.3681641-4.0673828,1.0205078c-0.8779335,1.4150391-0.4414101,3.2802734,0.9716797,4.1591797  c0.9824219,0.609375,2.2041016,0.6054688,3.1904297-0.0068359c0.1601563-0.0996094,0.34375-0.1503906,0.5273438-0.1503906  c0.1484375,0,0.2958984,0.0332031,0.4335938,0.0986328c0.3085938,0.1484375,0.5195313,0.4443359,0.5595703,0.7841797  c0.1025391,0.8710938,0.5878906,1.6357422,1.3300781,2.0966797c0.6494141,0.4033203,1.4199219,0.5292969,2.1611328,0.3554688  c0.7451172-0.1738281,1.3759766-0.6279297,1.7792969-1.2773438c0.1103516-0.1767578,0.2001953-0.3681641,0.2763672-0.5859375  c0.1396484-0.4023438,0.5185547-0.671875,0.9443359-0.671875c0.0048828,0,0.015625,0,0.0244141,0  c0.7548828,0,1.4384766-0.375,1.8320313-1.0068359c0.6259766-1.0087891,0.3144531-2.3388672-0.6933594-2.9648438  c-0.5859375-0.3642578-1.2958984-0.4208984-1.9482422-0.1552734c-0.2636719,0.1054688-0.5566406,0.0957031-0.8125-0.0263672  C74.6763916,67.4946289,74.4859619,67.269043,74.4068604,66.9975586z M85.6412354,44.8149414  c-0.0712891,1.3203125-0.6513672,2.5341797-1.6357422,3.4179688c-0.9433594,0.8476563-2.1259766,1.2646484-3.3046875,1.2646484  c-1.3574219,0-2.7089844-0.5527344-3.6855469-1.6391602c-1.8232422-2.0307617-1.6542969-5.1665039,0.375-6.9897461  c2.0292969-1.8251953,5.1660156-1.65625,6.9902344,0.3740234C85.2642822,42.2260742,85.7115479,43.4951172,85.6412354,44.8149414z   M83.644165,44.7080078c0.0419922-0.7866211-0.2246094-1.5424805-0.7519531-2.128418  c-0.5263672-0.5864258-1.25-0.9326172-2.0361328-0.9746094c-0.0546875-0.0029297-0.1083984-0.0043945-0.1621094-0.0043945  c-0.7275391,0-1.421875,0.2651367-1.9677734,0.7558594c-1.2089844,1.0864258-1.3095703,2.9550781-0.2226563,4.1655273  c1.0859375,1.2099609,2.9560547,1.3085938,4.1660156,0.2226563C83.2554932,46.2182617,83.6011963,45.4946289,83.644165,44.7080078z   M81.5054932,42.8173828c-0.3085938,0.2768555-0.3339844,0.7509766-0.0566406,1.059082  c0.3710938,0.4135742,0.3369141,1.0527344-0.0771484,1.4243164c-0.3076172,0.2768555-0.3330078,0.7509766-0.0556641,1.059082  c0.1484375,0.1645508,0.3525391,0.2485352,0.5576172,0.2485352c0.1787109,0,0.3583984-0.0634766,0.5019531-0.1923828  c1.0273438-0.9243164,1.1123047-2.5131836,0.1884766-3.5415039C82.2867432,42.5644531,81.8131104,42.5410156,81.5054932,42.8173828z   M67.3092041,80.9448242l-12.3017616,1.171875c-1.7324219,0.1660156-3.2578125,1.1806641-4.081543,2.7119141  c-0.1962891,0.3652344-0.059082,0.8203125,0.3051758,1.0166016c0.1132813,0.0605469,0.2353516,0.0888672,0.3544922,0.0888672  c0.2675781,0,0.5263672-0.1435547,0.6621094-0.3945313c0.1165771-0.2171631,0.2666016-0.4075317,0.4200439-0.5935669  c0.6167603-0.7477417,1.4954224-1.241333,2.4822998-1.335144l6.2422485-0.5946655l6.0595131-0.5772095  c0.4121094-0.0400391,0.7148438-0.40625,0.6757813-0.8183594C68.088501,81.2094727,67.7310791,80.9174805,67.3092041,80.9448242z   M48.9830284,63.8325195c-1.7283936,0-3.72229-0.9713745-3.7910767-2.2337646  c-1.1091309-0.178772-1.1156616-0.468689-1.1156616-0.7857666c0-0.3310547,0.2685547-0.5996094,0.6000977-0.5996094  c0.1479492,0,0.2832031,0.0527344,0.3876953,0.1416016c0.0713501,0.0181274,0.1880493,0.0373535,0.3259277,0.0565796  c0.0574951-0.1887817,0.1558228-0.3624878,0.3254395-0.4725952l1.3564453-0.8837891  c0.1376953-0.0898438,0.2993164-0.1376953,0.4638672-0.1376953c0.5585938,0,1.0629883,0.1552734,1.4477539,0.4150391  c0.3842773-0.2597656,0.8886719-0.4150391,1.4472656-0.4150391c0.1650391,0,0.3261719,0.0478516,0.4643555,0.1376953  l1.3554688,0.8837891c0.1699829,0.1101074,0.2680664,0.2838745,0.3252563,0.4727783  c0.1384888-0.0192871,0.2556152-0.0385742,0.3270874-0.0567627c0.1044922-0.0888672,0.2402344-0.1416016,0.3876953-0.1416016  c0.3310547,0,0.5996094,0.2685547,0.5996094,0.5996094c0,0.3171387-0.0064697,0.6071167-1.1161499,0.7858276  C52.7052574,62.8612671,50.7113609,63.8325195,48.9830284,63.8325195z M50.697628,61.2258911  c0-0.0513916-0.0430908-0.1099854-0.1126099-0.1704102c-0.1682129-0.0274658-0.3647461-0.0820923-0.5791016-0.1762085  c-0.1426392-0.062561-0.2697144-0.1327515-0.3844604-0.2050781c-0.1976318-0.0361938-0.4122925-0.059021-0.6382446-0.059021  c-0.2260132,0-0.4406128,0.0228271-0.6381836,0.059021c-0.1148682,0.0723267-0.2419434,0.1425171-0.3845825,0.2050781  c-0.2143555,0.0941162-0.4109497,0.1487427-0.5791016,0.1762085c-0.069397,0.0604248-0.1126099,0.1190186-0.1126099,0.1704102  c0,0.2301025,0.7675171,0.1486206,1.7144775,0.1486206C49.9300499,61.3745117,50.697628,61.4559937,50.697628,61.2258911z   M50.2408409,56.8227539c0.0224609,0.0019531,0.0444336,0.0029297,0.0664063,0.0029297  c0.3847656,0,0.7119141-0.2939453,0.7460938-0.6845703c0.0361328-0.4130859-0.269043-0.7763672-0.6816406-0.8125  c-0.8632813-0.0751953-1.8393555-0.3828125-1.9619141-0.5791016c0,0,0.0048828-0.0380859,0.0537109-0.1171875  c0.9970703-1.6171875,1.8867188-5.1186523,1.9238281-5.2670898c0.1015625-0.4013672-0.1420898-0.809082-0.543457-0.9101563  c-0.402832-0.1015625-0.8095703,0.1425781-0.9106445,0.543457c-0.0087891,0.0341797-0.8706055,3.4257813-1.746582,4.8466797  c-0.4301758,0.6982422-0.2631836,1.2626953-0.125,1.5371094C47.6285362,56.5102539,49.6383018,56.7700195,50.2408409,56.8227539z   M54.4710655,43.1894531c0.2324829-0.2705688,0.5474854-0.5177612,0.9040527-0.7366943  c0.31073-0.1907349,0.6522827-0.3605957,1.0083008-0.4981689c0.7712402-0.2998047,1.6135254-0.4838867,2.473877-0.5698242  c0.861084-0.0791016,1.7419434-0.0620117,2.6086426,0.0898438c0.8621826,0.156189,1.7247925,0.4368896,2.4545898,0.977417  c0.0003052,0.0002441,0.0006714,0.0003662,0.0009766,0.0006104c-0.6188965-0.668457-1.454834-1.1318359-2.3220215-1.4594727  c-0.873291-0.3271484-1.7995605-0.5209961-2.7412109-0.6083984c-0.942627-0.0800781-1.907959-0.0561523-2.8764648,0.125  c-0.9650879,0.1894531-1.9482422,0.5053711-2.8637695,1.206543l-0.0270996,0.0205078  c-0.0524902,0.0405273-0.1018066,0.0874023-0.1469727,0.1396484c-0.3623047,0.421875-0.3144531,1.0576172,0.1071777,1.4199219  S54.1085167,43.6108398,54.4710655,43.1894531z M44.1480675,47.0571289c0-0.331543-0.2685547-0.6000977-0.6000977-0.6000977  c-0.2744141,0-0.5053711,0.184082-0.5771484,0.4350586c-0.2797852,0.190918-1.3925781,0.4980469-3.1821289,0.4980469  s-2.9023438-0.3071289-3.1821289-0.4980469c-0.0717773-0.2509766-0.3027344-0.4350586-0.5771484-0.4350586  c-0.331543,0-0.6000977,0.2685547-0.6000977,0.6000977c0,0.4847412,0.3916626,0.8145752,0.9430542,1.0421753  c-0.008728,0.0015259-0.0235596,0.0100708-0.0309448,0.0100708c-0.0019531,0-0.0039063,0-0.0063477-0.0004883  c-0.2729492-0.0537109-0.5327148,0.128418-0.5830078,0.4003906c-0.050293,0.2714844,0.1289063,0.5322266,0.4003906,0.5830078  c0.0595703,0.0107422,0.1191406,0.0161133,0.1787109,0.0161133c0.5176392,0,1.0255127-0.3883667,1.3279419-0.6722412  c0.1942749,0.0308228,0.3884888,0.055542,0.5791016,0.0753784c-0.1826782,0.0526123-0.3306885,0.2021484-0.361145,0.4025269  c-0.0410156,0.2729492,0.1469727,0.5273438,0.4204102,0.5688477c0.0493164,0.0073242,0.0976563,0.0107422,0.1445313,0.0107422  c0.5527344,0,0.9060059-0.4946899,1.1061401-0.9054565c0.0891113,0.0014038,0.1710205,0.0021362,0.2405396,0.0021362  c0.069458,0,0.1513672-0.0007324,0.2404175-0.0021362c0.2000732,0.4107666,0.5532227,0.9054565,1.1062622,0.9054565  c0.046875,0,0.0952148-0.003418,0.1445313-0.0107422c0.2734375-0.0415039,0.484375-0.2939453,0.4433594-0.5668945  c-0.0310669-0.2046509-0.1710205-0.3603516-0.3520508-0.4080811c0.1802368-0.0192261,0.3632202-0.0426636,0.5464478-0.0717163  c0.3026123,0.2836914,0.810791,0.6721802,1.3285522,0.6721802c0.0595703,0,0.1196289-0.0053711,0.1787109-0.0161133  c0.2714844-0.0507813,0.4526367-0.3120117,0.4018555-0.5834961c-0.050293-0.2714844-0.3115234-0.4482422-0.581543-0.4003906  c-0.008667,0.0013428-0.0268555-0.0088501-0.0377808-0.0101318C43.7575645,47.8706665,44.1480675,47.5411377,44.1480675,47.0571289z   M39.109005,41.3847656c0.8603516,0.0859375,1.7026367,0.2700195,2.473877,0.5698242  c0.3560181,0.1375732,0.6976318,0.3074341,1.0084229,0.4981689c0.3566895,0.2189331,0.6716919,0.4661255,0.9041748,0.7366943  c0.0437012,0.0498047,0.0964355,0.1005859,0.1513672,0.1425781c0.4414063,0.3383789,1.0732422,0.2543945,1.411377-0.1870117  s0.2541504-1.0732422-0.1872559-1.4116211l-0.0227051-0.0170898c-0.9155273-0.7011719-1.8986816-1.0170898-2.8635254-1.206543  c-0.96875-0.1811523-1.934082-0.2050781-2.8764648-0.125c-0.9416504,0.0874023-1.8679199,0.28125-2.7414551,0.6083984  c-0.8671875,0.3276367-1.703125,0.7910156-2.3217773,1.4594727c0.000061-0.000061,0.000061,0,0.0001221-0.000061  c0.7299194-0.5408325,1.5929565-0.8217163,2.4552002-0.9779663C37.3670616,41.3227539,38.247921,41.3056641,39.109005,41.3847656z"/><text x="0" y="115" fill="#000000" font-size="5px" font-weight="bold" font-family="'Helvetica Neue', Helvetica, Arial-Unicode, Arial, Sans-serif">Created by Llisole</text><text x="0" y="120" fill="#000000" font-size="5px" font-weight="bold" font-family="'Helvetica Neue', Helvetica, Arial-Unicode, Arial, Sans-serif">from the Noun Project</text></svg>