<svg xmlns="http://www.w3.org/2000/svg" xmlns:xlink="http://www.w3.org/1999/xlink" version="1.1" x="0px" y="0px" viewBox="-9.25 -18.25 104 147.8125" enable-background="new -9.25 -18.25 104 118.25" xml:space="preserve"><path d="M83.42,42.006c1.411-3.235,1.998-4.545,1.65-9.394c-0.565-7.881-3.885-14.797-7.973-19.458  C66.777,1.388,39.164,1.636,27.234,11.988c-5.861,5.084-12.032,13.047-12.243,23.172c-0.267,12.797,5.456,21.061,10.712,29.077  c1.683,2.564,3.964,5.666,4.372,8.744c0.85,6.426-0.081,11.674-2.775,15.74c-1.888,2.85-3.598,5.33-5.4,7.564h42.706  c-2.104-3.879-2.847-10.273,0.078-10.266c4.332,0.125,7.42,1.17,11.74,0.516c3.262-0.495,5.276-1.393,5.903-4.372  c0.733-3.489-1.201-3.955-0.875-5.685c0.448-2.387,1.917-3.572,2.661-6.34c1.011-3.763-0.848-6.039,0.746-6.809  c2.104-1.32,3.938-1.238,5.773-3.029C93.668,57.455,81.771,46.229,83.42,42.006z"/><path d="M10.93,25.218c0.226-0.428,0.062-0.955-0.365-1.18L3.101,20.1l0.543-1.03l7.466,3.938c0.426,0.225,0.955,0.061,1.18-0.365  c0.225-0.427,0.062-0.955-0.365-1.179l-7.467-3.938l0.543-1.03l7.466,3.938c0.426,0.225,0.955,0.062,1.179-0.365  c0.226-0.427,0.062-0.955-0.365-1.179l-7.466-3.938l0.543-1.03l7.466,3.938c0.426,0.226,0.956,0.062,1.18-0.365  c0.225-0.426,0.062-0.955-0.365-1.18l-7.466-3.938l0.543-1.029l7.466,3.938c0.425,0.225,0.954,0.062,1.179-0.365  c0.226-0.426,0.062-0.954-0.365-1.18L8.532,9.802l0.543-1.03l7.467,3.938c0.425,0.225,0.954,0.062,1.179-0.365  c0.226-0.427,0.062-0.956-0.365-1.179L9.891,7.228l0.543-1.03l7.467,3.938c0.425,0.226,0.954,0.062,1.179-0.364  c0.225-0.428,0.062-0.955-0.365-1.181l-7.466-3.938l0.543-1.03l7.466,3.938c0.427,0.225,0.955,0.062,1.179-0.365  c0.226-0.427,0.062-0.954-0.365-1.179l-7.465-3.939l0.543-1.03l7.466,3.938c0.427,0.225,0.955,0.062,1.18-0.365  c0.225-0.427,0.061-0.956-0.365-1.18l-7.465-3.939l0.542-1.029l7.466,3.938c0.427,0.224,0.955,0.062,1.179-0.365  c0.226-0.427,0.062-0.955-0.365-1.18L15.322-3.07l0.543-1.03l7.466,3.938c0.426,0.225,0.955,0.062,1.18-0.365  c0.225-0.427,0.061-0.955-0.365-1.18l-7.466-3.938l0.543-1.029l7.466,3.938c0.426,0.224,0.954,0.062,1.179-0.365  c0.225-0.427,0.062-0.955-0.365-1.18l-7.466-3.938l0.543-1.03l7.466,3.939c0.426,0.225,0.954,0.062,1.179-0.365  c0.226-0.427,0.062-0.955-0.365-1.18l-7.465-3.938l0.543-1.03l7.466,3.938c0.427,0.225,0.956,0.062,1.18-0.365  c0.225-0.427,0.062-0.955-0.365-1.18l-7.466-3.939l-0.773-0.407l-1.805-0.953c-0.094-0.05-0.194-0.079-0.295-0.091  c-2.543-1.129-3.809-0.853-5.558,2.461L-7.311,24.864c-1.994,3.777-0.301,4.67,1.841,5.801c0,0,0.001,0,0.002,0  c0.154,0.083,0.317,0.166,0.476,0.248l9.333,4.924c0.426,0.225,0.956,0.062,1.18-0.365c0.224-0.426,0.061-0.956-0.365-1.18  l-7.466-3.938l0.521-0.986l7.465,3.939c0.426,0.225,0.955,0.061,1.18-0.365c0.225-0.428,0.062-0.955-0.365-1.18l-7.464-3.938  l0.542-1.03l7.466,3.938c0.427,0.226,0.956,0.062,1.18-0.365c0.225-0.426,0.062-0.954-0.364-1.179l-7.465-3.939l0.542-1.03  l7.466,3.939c0.426,0.225,0.956,0.062,1.18-0.365c0.225-0.426,0.062-0.955-0.365-1.18l-7.466-3.938l0.543-1.029l7.466,3.938  C10.177,25.808,10.706,25.644,10.93,25.218z"/><circle cx="5.251" cy="75.125" r="2.375"/><circle cx="7.626" cy="47.905" r="2.375"/><circle cx="7.626" cy="61.875" r="2.375"/><circle cx="16.002" cy="82.877" r="2.375"/><circle cx="16.001" cy="69.501" r="2.375"/><circle cx="12.626" cy="34.904" r="2.375"/><text x="-9.25" y="115" fill="#000000" font-size="5px" font-weight="bold" font-family="'Helvetica Neue', Helvetica, Arial-Unicode, Arial, Sans-serif">Created by corpus delicti</text><text x="-9.25" y="120" fill="#000000" font-size="5px" font-weight="bold" font-family="'Helvetica Neue', Helvetica, Arial-Unicode, Arial, Sans-serif">from the Noun Project</text></svg>