<svg xmlns="http://www.w3.org/2000/svg" xmlns:xlink="http://www.w3.org/1999/xlink" version="1.1" x="0px" y="0px" viewBox="0 0 100 125" enable-background="new 0 0 100 100" xml:space="preserve"><g display="none"><g display="inline"><polyline fill="none" stroke="#000000" stroke-width="2" stroke-linejoin="round" stroke-miterlimit="10" points="72,70 65,70     65,42 80.268,42 94,55.276 94,70 86,70   "/><polyline fill="none" stroke="#000000" stroke-width="2" stroke-linejoin="round" stroke-miterlimit="10" points="42,64 65,64     65,70 44,70   "/><line fill="none" stroke="#000000" stroke-width="2" stroke-linejoin="round" stroke-miterlimit="10" x1="26" y1="64" x2="32" y2="64"/><polyline fill="none" stroke="#000000" stroke-width="2" stroke-linejoin="round" stroke-miterlimit="10" points="14,70 6,70     6,64 16,64   "/><line fill="none" stroke="#000000" stroke-width="2" stroke-linejoin="round" stroke-miterlimit="10" x1="88" y1="50" x2="65" y2="50"/><line fill="none" stroke="#000000" stroke-width="2" stroke-linejoin="round" stroke-miterlimit="10" x1="70" y1="56" x2="74" y2="56"/><rect x="74" y="35" fill="none" stroke="#000000" stroke-width="2" stroke-linejoin="round" stroke-miterlimit="10" width="6" height="7"/><g><circle fill="none" stroke="#000000" stroke-width="2" stroke-linejoin="round" stroke-miterlimit="10" cx="21.168" cy="69.156" r="7.093"/><circle cx="21.167" cy="69.156" r="1.773"/><circle fill="none" stroke="#000000" stroke-width="2" stroke-linejoin="round" stroke-miterlimit="10" cx="36.636" cy="69.156" r="7.093"/><circle cx="36.636" cy="69.156" r="1.773"/><circle fill="none" stroke="#000000" stroke-width="2" stroke-linejoin="round" stroke-miterlimit="10" cx="78.657" cy="69.156" r="7.092"/><circle cx="78.658" cy="69.156" r="1.773"/></g></g><rect x="5" y="5" display="inline" fill="none" width="90" height="90"/></g><g display="none"><path display="inline" fill="none" stroke="#000000" stroke-width="2" stroke-linecap="round" stroke-linejoin="round" stroke-miterlimit="10" d="   M79.795,20.75C73.545,20.75,69,27,69,27s-4.545-6.25-10.795-6.25S44,35,44,35s10.795,17.75,25,17.75S94,35,94,35   S86.045,20.75,79.795,20.75z"/><path display="inline" fill="none" stroke="#000000" stroke-width="2" stroke-linecap="round" stroke-linejoin="round" stroke-miterlimit="10" d="   M72.887,32.75C70.637,32.75,69,34.5,69,34.5s-1.637-1.75-3.887-1.75S60,36,60,36s3.887,4.75,9,4.75S78,36,78,36   S75.137,32.75,72.887,32.75z"/><path display="inline" fill="none" stroke="#000000" stroke-width="2" stroke-linecap="round" stroke-linejoin="round" stroke-miterlimit="10" d="   M38.932,46C33.182,46,29,51.469,29,51.469S24.818,46,19.068,46S6,58.469,6,58.469S15.932,74,29,74s23-15.531,23-15.531   S44.682,46,38.932,46z"/><path display="inline" fill="none" stroke="#000000" stroke-width="2" stroke-linecap="round" stroke-linejoin="round" stroke-miterlimit="10" d="   M32.455,56.5c-2,0-3.455,1.531-3.455,1.531S27.545,56.5,25.545,56.5S21,59.344,21,59.344s3.455,4.156,8,4.156s8-4.156,8-4.156   S34.455,56.5,32.455,56.5z"/><line display="inline" fill="none" stroke="#000000" stroke-width="2" stroke-linecap="round" stroke-linejoin="round" stroke-miterlimit="10" x1="37" y1="35" x2="33" y2="35"/><line display="inline" fill="none" stroke="#000000" stroke-width="2" stroke-linecap="round" stroke-linejoin="round" stroke-miterlimit="10" x1="35" y1="37" x2="35" y2="33"/><line display="inline" fill="none" stroke="#000000" stroke-width="2" stroke-linecap="round" stroke-linejoin="round" stroke-miterlimit="10" x1="23" y1="25" x2="21" y2="25"/><line display="inline" fill="none" stroke="#000000" stroke-width="2" stroke-linecap="round" stroke-linejoin="round" stroke-miterlimit="10" x1="29" y1="25" x2="27" y2="25"/><line display="inline" fill="none" stroke="#000000" stroke-width="2" stroke-linecap="round" stroke-linejoin="round" stroke-miterlimit="10" x1="25" y1="23" x2="25" y2="21"/><line display="inline" fill="none" stroke="#000000" stroke-width="2" stroke-linecap="round" stroke-linejoin="round" stroke-miterlimit="10" x1="25" y1="29" x2="25" y2="27"/><line display="inline" fill="none" stroke="#000000" stroke-width="2" stroke-linecap="round" stroke-linejoin="round" stroke-miterlimit="10" x1="70" y1="61" x2="66" y2="61"/><line display="inline" fill="none" stroke="#000000" stroke-width="2" stroke-linecap="round" stroke-linejoin="round" stroke-miterlimit="10" x1="68" y1="63" x2="68" y2="59"/><line display="inline" fill="none" stroke="#000000" stroke-width="2" stroke-linecap="round" stroke-linejoin="round" stroke-miterlimit="10" x1="77" y1="75" x2="75" y2="75"/><line display="inline" fill="none" stroke="#000000" stroke-width="2" stroke-linecap="round" stroke-linejoin="round" stroke-miterlimit="10" x1="83" y1="75" x2="81" y2="75"/><line display="inline" fill="none" stroke="#000000" stroke-width="2" stroke-linecap="round" stroke-linejoin="round" stroke-miterlimit="10" x1="79" y1="73" x2="79" y2="71"/><line display="inline" fill="none" stroke="#000000" stroke-width="2" stroke-linecap="round" stroke-linejoin="round" stroke-miterlimit="10" x1="79" y1="79" x2="79" y2="77"/><line display="inline" fill="none" stroke="#000000" stroke-width="2" stroke-linecap="round" stroke-linejoin="round" stroke-miterlimit="10" x1="53" y1="73" x2="51" y2="73"/><line display="inline" fill="none" stroke="#000000" stroke-width="2" stroke-linecap="round" stroke-linejoin="round" stroke-miterlimit="10" x1="59" y1="73" x2="57" y2="73"/><line display="inline" fill="none" stroke="#000000" stroke-width="2" stroke-linecap="round" stroke-linejoin="round" stroke-miterlimit="10" x1="55" y1="71" x2="55" y2="69"/><line display="inline" fill="none" stroke="#000000" stroke-width="2" stroke-linecap="round" stroke-linejoin="round" stroke-miterlimit="10" x1="55" y1="77" x2="55" y2="75"/></g><g display="none"><path display="inline" fill="none" stroke="#000000" stroke-width="2" stroke-linecap="round" stroke-linejoin="round" stroke-miterlimit="10" d="   M80,42H40c-7.18,0-13,5.82-13,13v5h66v-5C93,47.82,87.18,42,80,42z"/><path display="inline" fill="none" stroke="#000000" stroke-width="2" stroke-linecap="round" stroke-linejoin="round" stroke-miterlimit="10" d="   M94,65v16c0,7.18-5.82,13-13,13H39c-7.18,0-13-5.82-13-13V65H94z"/><rect x="27" y="60" display="inline" fill="none" stroke="#000000" stroke-width="2" stroke-linecap="round" stroke-linejoin="round" stroke-miterlimit="10" width="66" height="5"/><rect x="36" y="70" display="inline" fill="none" stroke="#000000" stroke-width="2" stroke-linecap="round" stroke-linejoin="round" stroke-miterlimit="10" width="48" height="16"/><line display="inline" fill="none" stroke="#000000" stroke-width="2" stroke-linecap="round" stroke-linejoin="round" stroke-miterlimit="10" x1="71" y1="74" x2="78" y2="82"/><line display="inline" fill="none" stroke="#000000" stroke-width="2" stroke-linecap="round" stroke-linejoin="round" stroke-miterlimit="10" x1="76" y1="74" x2="80" y2="79"/><path display="inline" fill="none" stroke="#000000" stroke-width="2" stroke-linecap="round" stroke-linejoin="round" stroke-miterlimit="10" d="   M18,83.565c1.637,0,2.892-1.388,2.667-2.846C20.48,79.512,19.429,78,18,78c0,0,0,4.617-6,4.617c-1.657,0-3,1.274-3,2.846   c0,1.571,1.343,2.846,3,2.846H9c-1.657,0-3,1.274-3,2.846C6,92.726,7.343,94,9,94h12c1.657,0,3-1.274,3-2.846   c0-1.572-1.343-2.846-3-2.846h-3c1.888,0,3.708-1.954,2.689-3.686c-0.201-0.342-0.633-0.762-1.025-0.875   C19.129,83.592,18.556,83.565,18,83.565z"/></g><g><g><path d="M94,64v-4v-5c0-7.72-6.28-14-14-14H40c-7.72,0-14,6.28-14,14v5v4c-0.552,0-1,0.448-1,1v16c0,7.72,6.28,14,14,14h42    c7.72,0,14-6.28,14-14V65C95,64.448,94.552,64,94,64z M28,55c0-6.617,5.383-12,12-12h40c6.617,0,12,5.383,12,12v4H28V55z M28,61    h64v3H28V61z M93,81c0,6.617-5.383,12-12,12H39c-6.617,0-12-5.383-12-12V66h66V81z"/><path d="M36,87h48c0.552,0,1-0.448,1-1V70c0-0.552-0.448-1-1-1H36c-0.552,0-1,0.448-1,1v16C35,86.552,35.448,87,36,87z M37,71h46    v14H37V71z"/><path d="M71.752,73.341c-0.364-0.416-0.995-0.458-1.411-0.094c-0.416,0.364-0.458,0.995-0.094,1.411l7,8    C77.445,82.884,77.722,83,78,83c0.233,0,0.468-0.082,0.658-0.248c0.416-0.364,0.458-0.995,0.094-1.411L71.752,73.341z"/><path d="M76.781,73.375c-0.344-0.432-0.975-0.501-1.405-0.156c-0.432,0.345-0.501,0.974-0.156,1.405l4,5    C79.417,79.872,79.707,80,80,80c0.219,0,0.44-0.072,0.624-0.219c0.432-0.345,0.501-0.974,0.156-1.405L76.781,73.375z"/><path d="M21.497,87.338c0.016-0.026,0.031-0.052,0.046-0.079c0.582-1.017,0.584-2.162,0.008-3.143    c-0.162-0.275-0.412-0.577-0.713-0.829c0.006-0.007,0.013-0.015,0.02-0.022c0.653-0.762,0.944-1.745,0.797-2.698    C21.39,78.852,19.917,77,18,77c-0.546,0-0.991,0.446-1,0.992c-0.006,0.371-0.2,3.625-5,3.625c-2.206,0-4,1.725-4,3.846    c0,0.68,0.185,1.32,0.508,1.875C6.534,87.571,5,89.194,5,91.154C5,93.275,6.794,95,9,95h12c2.206,0,4-1.725,4-3.846    C25,89.195,23.469,87.574,21.497,87.338z M21,93H9c-1.103,0-2-0.828-2-1.846s0.897-1.846,2-1.846h3c0.552,0,1-0.448,1-1    s-0.448-1-1-1c-1.103,0-2-0.828-2-1.846s0.897-1.846,2-1.846c4.776,0,6.294-2.649,6.776-4.309    c0.476,0.384,0.823,1.052,0.902,1.564c0.059,0.38-0.062,0.767-0.338,1.09c-0.329,0.383-0.817,0.603-1.34,0.603    c-0.552,0-1,0.448-1,1s0.448,1,1,1c0.442,0,0.953,0.017,1.383,0.142c0.098,0.035,0.335,0.238,0.444,0.423    c0.212,0.36,0.205,0.743-0.02,1.136c-0.346,0.604-1.105,1.042-1.807,1.042c-0.552,0-1,0.448-1,1s0.448,1,1,1h3    c1.103,0,2,0.828,2,1.846S22.103,93,21,93z"/></g></g><text x="0" y="115" fill="#000000" font-size="5px" font-weight="bold" font-family="'Helvetica Neue', Helvetica, Arial-Unicode, Arial, Sans-serif">Created by Pawinee E.</text><text x="0" y="120" fill="#000000" font-size="5px" font-weight="bold" font-family="'Helvetica Neue', Helvetica, Arial-Unicode, Arial, Sans-serif">from the Noun Project</text></svg>